<svg width="491" height="304" viewBox="0 0 491 304" fill="none" xmlns="http://www.w3.org/2000/svg">
<path d="M184.351 152.119C184.351 102.784 208.315 58.735 245.391 31.2043C219.845 12.2632 187.968 0.810425 153.605 0.810425C69.0535 1.03067 0.779297 68.646 0.779297 152.119C0.779297 235.592 69.2796 303.207 153.605 303.207C187.968 303.207 219.845 291.975 245.391 272.814C208.315 245.503 184.351 201.674 184.351 152.119Z" fill="#333333"/>
<path d="M337.177 1.02991C302.588 1.02991 270.937 12.2624 245.391 31.4237C282.467 58.9544 306.431 102.783 306.431 152.338C306.431 201.673 282.467 245.722 245.391 273.253C270.937 292.194 302.814 303.647 337.177 303.647C421.729 303.647 490.229 236.032 490.229 152.559C490.229 68.6452 421.729 1.02991 337.177 1.02991Z" fill="#F89820"/>
</svg>
