<svg width="491" height="277" viewBox="0 0 491 277" fill="none" xmlns="http://www.w3.org/2000/svg">
<path d="M184.351 138.698C184.351 93.7951 208.315 53.7031 245.391 28.6456C219.844 11.406 187.968 0.982056 153.605 0.982056C69.0533 1.18252 0.779053 62.7238 0.779053 138.698C0.779053 214.673 69.2794 276.214 153.605 276.214C187.968 276.214 219.844 265.99 245.391 248.55C208.315 223.693 184.351 183.802 184.351 138.698Z" fill="#F89820"/>
<path d="M337.177 1.18182C302.587 1.18182 270.937 11.4053 245.391 28.8453C282.467 53.9028 306.431 93.7944 306.431 138.898C306.431 183.801 282.467 223.893 245.391 248.95C270.937 266.19 302.813 276.614 337.177 276.614C421.728 276.614 490.228 215.073 490.228 139.098C490.228 62.723 421.728 1.18182 337.177 1.18182Z" fill="#B5B2B1"/>
</svg>
