<svg width="491" height="277" viewBox="0 0 491 277" fill="none" xmlns="http://www.w3.org/2000/svg">
<path d="M184.351 138.527C184.351 93.6235 208.315 53.5315 245.391 28.474C219.844 11.2344 187.968 0.810425 153.605 0.810425C69.0533 1.01088 0.779053 62.5522 0.779053 138.527C0.779053 214.501 69.2794 276.042 153.605 276.042C187.968 276.042 219.844 265.819 245.391 248.379C208.315 223.522 184.351 183.63 184.351 138.527Z" fill="#FA8C1E"/>
<path d="M337.177 1.01019C302.587 1.01019 270.937 11.2336 245.391 28.6737C282.467 53.7312 306.431 93.6228 306.431 138.726C306.431 183.629 282.467 223.721 245.391 248.779C270.937 266.018 302.813 276.442 337.177 276.442C421.728 276.442 490.228 214.901 490.228 138.927C490.228 62.5514 421.728 1.01019 337.177 1.01019Z" fill="#000001"/>
</svg>
