<svg width="24.000000000000004" height="24.000000000000004" xmlns="http://www.w3.org/2000/svg">

 <g>
  <title>background</title>
  <rect fill="none" id="canvas_background" height="402" width="582" y="-1" x="-1"/>
 </g>
 <g>
  <title>Layer 1</title>
  <path id="svg_1" stroke-miterlimit="10" stroke-linejoin="round" stroke-linecap="round" stroke="#ffffff" fill="#ffffff" d="m11.534246,5.49989c0,0 5.58018,9.6045 6.5,13c0.92448,3.41269 -3.9999,5 -3.9999,5c3.99788,0.01779 4.5,-1 6,-2s3.4999,-1 3.4999,-1c-1.5,-2 0,-5.00001 0,-5.00001s-0.5001,0.99853 -2,0.99853c-1.5001,0 -2.4999,-1.99853 -2.4999,-1.99853l-7,-14l-7.0001,14c0,0 -1,2.00001 -2.5,2.00001s-2,-1.00001 -2,-1.00001s1.5,3.00001 0,5.00001c0,0 2,0 3.5,1s2.00211,2.01779 6,2c0,0 -4.92448,-1.58731 -4,-5c0.95289,-3.51757 5.5,-13 5.5,-13z"/>
 </g>
</svg>